<?xml version="1.0" standalone="no"?>
<!DOCTYPE svg PUBLIC "-//W3C//DTD SVG 20010904//EN"
 "http://www.w3.org/TR/2001/REC-SVG-20010904/DTD/svg10.dtd">
<svg version="1.0" xmlns="http://www.w3.org/2000/svg"
 width="225.000000pt" height="225.000000pt" viewBox="0 0 225.000000 225.000000"
 preserveAspectRatio="xMidYMid meet">
<metadata>
Created by potrace 1.10, written by Peter Selinger 2001-2011
</metadata>
<g transform="translate(0.000000,225.000000) scale(0.100000,-0.100000)"
fill="#000000" stroke="none">
<path d="M1035 2174 c-22 -13 -47 -24 -56 -24 -8 0 -37 -11 -65 -24 -30 -15
-75 -26 -119 -30 -38 -3 -79 -7 -90 -9 -11 -2 -26 1 -33 6 -16 12 -62 -7 -62
-26 0 -13 -11 -23 -72 -69 -20 -16 -40 -38 -44 -50 -10 -31 -29 -48 -56 -48
-24 0 -122 -51 -133 -70 -3 -5 -15 -10 -26 -10 -10 0 -19 -4 -19 -10 0 -20 43
-10 79 19 59 46 98 63 120 51 31 -16 41 -12 41 18 0 36 21 65 75 102 26 18 48
42 51 56 5 21 11 24 28 18 22 -7 36 -7 157 -1 61 3 80 8 97 25 12 12 34 24 49
28 50 10 87 27 111 47 l22 20 23 -21 c13 -13 49 -26 91 -34 52 -10 74 -19 91
-39 19 -24 23 -25 32 -10 11 17 49 18 178 7 33 -3 63 -5 68 -6 4 0 7 -7 7 -15
0 -8 24 -30 53 -49 62 -39 97 -79 97 -111 0 -19 5 -22 45 -21 40 1 49 -3 97
-51 32 -31 67 -55 88 -60 33 -9 35 -11 32 -46 -3 -27 4 -47 27 -81 32 -45 43
-117 21 -131 -18 -11 -10 -25 14 -25 31 0 60 -36 82 -103 24 -74 42 -107 59
-107 19 0 19 -15 0 -44 -9 -13 -19 -59 -23 -102 -6 -69 -10 -80 -29 -89 -27
-12 -29 -27 -7 -46 14 -11 16 -30 12 -122 -3 -59 -1 -110 4 -113 17 -11 7 -34
-15 -34 -19 0 -29 -11 -47 -51 -26 -54 -67 -95 -106 -105 -22 -6 -23 -9 -17
-65 l6 -58 -62 -57 c-46 -43 -60 -62 -55 -76 5 -16 1 -18 -28 -16 -26 1 -46
-7 -83 -35 -36 -28 -57 -37 -86 -37 -21 0 -41 5 -44 10 -10 16 -25 11 -25 -8
0 -30 -52 -70 -115 -90 -50 -15 -62 -23 -79 -55 -22 -42 -36 -46 -54 -16 -13
20 -20 21 -85 16 -76 -5 -133 11 -144 41 -5 11 -10 9 -24 -9 -16 -22 -26 -24
-126 -27 -92 -3 -109 -7 -121 -23 -18 -26 -32 -24 -32 5 0 33 -21 52 -94 87
-69 33 -86 51 -86 90 0 27 -1 28 -30 17 -39 -13 -83 -5 -122 23 -16 12 -50 24
-74 27 -42 4 -44 6 -44 39 0 25 -10 44 -40 77 -36 39 -40 48 -40 97 0 54 0 55
-42 74 -34 16 -51 34 -80 84 -20 36 -48 71 -62 78 -31 16 -31 16 -9 49 15 23
15 33 4 86 -13 65 -3 121 24 132 21 8 18 24 -5 31 -33 11 -50 57 -50 140 0 41
-5 84 -12 94 -10 16 -7 23 19 45 17 14 38 45 48 68 23 59 62 98 97 98 15 0 28
5 28 10 0 6 -7 10 -15 10 -17 0 -35 30 -35 59 0 12 13 45 29 74 27 48 35 73
32 105 -2 24 -21 12 -21 -14 0 -15 -14 -53 -30 -86 -26 -50 -30 -68 -25 -102
6 -38 4 -44 -18 -59 -13 -8 -34 -37 -46 -62 -12 -26 -36 -61 -52 -79 -25 -26
-29 -36 -24 -66 3 -19 8 -71 11 -115 4 -54 12 -90 25 -112 17 -27 18 -36 8
-54 -7 -14 -10 -50 -7 -98 3 -41 1 -90 -4 -109 -9 -31 -7 -37 21 -64 17 -17
43 -52 57 -79 15 -27 44 -59 65 -74 21 -14 41 -35 43 -48 3 -12 7 -37 10 -56
4 -19 18 -46 34 -60 15 -15 28 -29 29 -31 1 -3 6 -18 12 -35 18 -50 26 -59 62
-67 19 -5 53 -18 75 -29 23 -12 63 -22 88 -23 34 -1 46 -5 46 -17 0 -21 58
-73 100 -90 41 -16 80 -48 80 -65 0 -6 7 -17 16 -25 13 -10 20 -10 44 4 19 12
51 17 100 17 40 0 90 5 112 12 31 9 47 9 76 -2 21 -8 68 -13 108 -11 54 1 76
-2 87 -14 23 -23 38 -19 84 24 24 23 60 45 83 51 23 6 58 26 78 44 27 25 49
35 85 38 27 3 64 17 87 32 22 15 54 29 71 33 18 3 37 17 46 32 9 14 35 44 57
66 54 54 66 77 66 126 0 38 17 69 38 69 12 0 61 58 75 90 7 14 24 36 39 50
l27 25 -2 149 c-1 104 2 154 10 165 7 9 13 34 13 56 0 23 7 67 15 98 19 73 19
67 -10 101 -14 16 -25 35 -25 42 0 27 -49 123 -74 145 -20 17 -26 32 -26 63 0
38 -32 120 -51 132 -5 3 -9 20 -9 37 0 41 -7 50 -55 73 -22 10 -52 32 -67 49
-15 18 -46 40 -70 49 -68 28 -72 31 -86 59 -7 15 -30 39 -50 54 -20 15 -53 41
-72 59 -31 28 -44 33 -115 40 -44 4 -104 6 -134 5 -29 -1 -59 3 -66 9 -7 6
-42 17 -78 24 -36 8 -76 21 -89 30 -29 21 -45 19 -93 -10z"/>
<path d="M1000 2024 c-148 -26 -225 -50 -328 -105 -217 -115 -379 -310 -450
-540 -41 -133 -49 -260 -27 -423 21 -151 135 -363 263 -485 190 -182 400 -263
668 -260 181 2 275 23 426 99 272 136 453 395 499 713 24 169 -27 391 -127
558 -86 143 -246 286 -404 361 -109 53 -224 79 -365 83 -71 2 -141 2 -155 -1z
m300 -48 c280 -60 487 -213 618 -457 70 -131 95 -236 95 -404 0 -134 -4 -160
-41 -280 -25 -83 -119 -235 -194 -315 -197 -213 -531 -321 -819 -265 -198 37
-345 114 -483 251 -235 234 -317 573 -214 879 97 287 330 504 626 581 105 27
308 32 412 10z"/>
<path d="M1005 1934 c-344 -51 -606 -271 -706 -594 -20 -65 -23 -96 -23 -230
0 -147 2 -160 32 -250 75 -225 247 -412 462 -503 137 -57 193 -68 354 -66 204
1 326 37 476 139 167 113 281 267 341 460 20 63 23 97 24 215 0 151 -9 204
-56 317 -99 241 -306 420 -564 490 -68 18 -275 32 -340 22z m173 -23 c3 -10
-3 -12 -24 -7 -16 3 -36 2 -44 -4 -11 -7 5 -10 53 -10 52 0 67 -3 67 -14 0 -8
-4 -18 -10 -21 -5 -3 -10 -29 -10 -57 l0 -50 -31 6 c-17 3 -40 6 -50 6 -12 0
-19 9 -22 28 -4 25 -4 25 -6 -5 -1 -26 -5 -33 -21 -33 -17 0 -20 7 -20 49 0
31 -5 53 -15 61 -18 15 -19 30 -2 30 7 0 20 9 30 21 14 15 27 19 59 17 24 -2
43 -9 46 -17z m-150 -28 c1 -39 16 -126 25 -139 9 -16 158 -9 168 8 10 15 14
11 23 -24 l6 -28 -117 0 c-89 0 -134 -5 -183 -20 -36 -11 -66 -20 -68 -20 -2
0 -1 13 3 29 8 39 -19 142 -44 162 -18 15 -17 16 27 32 52 18 81 24 128 26 27
1 31 -2 32 -26z m262 -17 c6 -8 18 -12 26 -9 8 3 21 0 28 -6 11 -9 15 -9 19 1
3 10 9 9 22 -4 16 -15 16 -18 2 -32 -8 -8 -23 -41 -33 -73 -21 -71 -20 -69
-40 -52 -9 7 -25 18 -37 24 -11 5 -22 16 -25 22 -4 13 3 17 51 27 42 10 32 24
-13 20 -43 -4 -62 14 -42 39 6 7 9 23 5 35 -6 26 17 31 37 8z m-440 -50 c0
-13 7 -43 15 -66 19 -54 20 -50 -12 -50 -16 0 -35 -5 -43 -10 -10 -6 -21 -3
-37 12 l-23 22 32 33 c35 36 32 41 -13 18 -29 -15 -49 -13 -49 5 0 12 89 59
113 60 11 0 17 -8 17 -24z m699 3 c24 -15 31 -23 23 -31 -8 -8 -15 -8 -24 -1
-20 15 -48 23 -48 14 0 -5 21 -21 48 -37 61 -35 59 -32 35 -49 -12 -8 -32 -32
-44 -52 -12 -21 -24 -40 -25 -42 -2 -2 -19 14 -39 34 -47 50 -41 75 18 75 l42
1 -24 19 c-35 30 -49 25 -73 -25 -12 -25 -26 -45 -30 -45 -18 0 -19 31 -3 56
14 22 20 43 24 86 1 3 9 9 19 11 38 10 69 6 101 -14z m-835 -71 c8 -18 23 -46
33 -61 16 -24 16 -29 3 -37 -11 -7 -21 -3 -37 17 -23 28 -27 25 -35 -21 -4
-28 -27 -31 -36 -5 -6 15 -11 18 -16 11 -13 -22 -36 -13 -36 13 0 30 32 65 60
65 13 0 20 7 20 19 0 16 6 23 27 30 2 1 9 -14 17 -31z m-139 -45 c-2 -10 -4
-21 -4 -25 -1 -5 -11 -8 -23 -8 l-21 0 23 25 c28 30 29 30 25 8z m1130 -58
c69 -69 91 -105 64 -105 -6 0 -30 -13 -54 -30 -50 -35 -69 -38 -62 -11 3 14 0
17 -14 14 -27 -7 -24 3 17 53 36 43 36 45 19 64 -19 21 -50 26 -60 10 -3 -5 2
-10 12 -10 10 0 24 -4 31 -8 16 -10 5 -42 -14 -42 -8 0 -19 -9 -26 -20 -7 -11
-18 -20 -25 -20 -15 0 -17 26 -3 35 18 11 11 23 -10 18 -28 -7 -27 33 1 58 18
15 25 31 28 62 2 18 26 1 96 -68z m-292 25 c9 0 31 -13 49 -28 18 -16 45 -32
59 -35 14 -4 32 -19 40 -34 8 -15 34 -48 59 -73 55 -55 83 -97 86 -130 2 -13
10 -29 18 -35 12 -10 12 -13 -4 -23 -18 -11 -22 -6 -47 46 -16 31 -31 59 -35
60 -5 2 -8 8 -8 13 0 11 -59 90 -75 101 -6 3 -24 18 -40 32 -48 42 -53 45 -59
39 -3 -4 -6 -2 -6 4 0 6 -24 21 -54 33 -47 21 -52 26 -43 41 10 16 13 16 27 4
9 -8 24 -15 33 -15z m-558 0 c0 -8 -10 -16 -22 -18 -22 -3 -32 16 -16 32 12
11 38 2 38 -14z m436 -11 c123 -40 235 -118 311 -216 27 -35 68 -121 86 -177
19 -62 21 -234 3 -291 -48 -156 -164 -291 -311 -361 -116 -56 -189 -69 -323
-55 -164 16 -254 59 -362 170 -178 182 -215 434 -98 653 41 77 154 185 241
231 99 53 148 64 278 66 88 1 124 -3 175 -20z m-717 -17 c4 -10 24 -32 46 -48
43 -31 46 -47 11 -52 -12 -2 -27 -12 -34 -23 -15 -24 -22 -24 -47 1 -15 15
-19 28 -14 48 l5 27 -19 -22 c-23 -27 -40 -29 -48 -8 -9 22 -19 18 -33 -11 -6
-15 -14 -24 -17 -21 -10 9 28 58 41 53 7 -2 30 13 51 35 43 44 50 47 58 21z
m209 -11 c15 -2 6 -22 -15 -31 -13 -6 -30 -15 -39 -22 -33 -23 -68 19 -39 48
9 9 50 11 93 5z m-100 -76 c4 -9 -13 -35 -43 -66 -28 -29 -50 -58 -50 -66 0
-7 -9 -28 -20 -48 -11 -20 -20 -42 -20 -50 0 -8 -4 -15 -8 -15 -18 0 -35 -151
-28 -248 3 -57 2 -91 -3 -83 -20 31 -18 -9 5 -79 28 -88 27 -102 -6 -106 -14
-1 -43 -10 -65 -19 -36 -16 -38 -18 -21 -31 13 -9 17 -20 12 -38 -8 -31 -33
-25 -42 10 -3 13 -9 24 -13 24 -4 0 -13 17 -20 38 -7 20 -16 46 -21 57 -33 73
-43 130 -48 247 -2 70 -1 135 3 145 8 18 9 22 20 81 3 19 10 30 16 26 7 -4 7
-10 0 -17 -6 -6 -11 -34 -10 -61 1 -62 9 -47 40 72 22 83 30 92 62 67 11 -7
36 -17 58 -20 41 -7 44 -11 30 -34 -7 -11 -15 -11 -41 -2 -40 14 -70 14 -70 1
0 -5 20 -15 45 -21 25 -6 47 -15 50 -19 3 -4 -2 -21 -10 -36 -8 -16 -15 -34
-15 -40 0 -6 -7 -17 -16 -25 -13 -11 -19 -8 -38 16 -19 24 -24 26 -32 13 -5
-8 -18 -20 -29 -26 -17 -11 -16 -11 12 -7 18 3 42 0 53 -7 15 -10 25 -10 38
-2 22 14 53 79 54 115 1 16 5 29 10 29 5 0 8 10 7 23 -4 28 17 67 36 67 18 0
20 16 3 17 -7 0 -21 4 -31 8 -16 7 -17 4 -11 -20 8 -30 16 -30 -86 -9 -17 4
-33 10 -35 15 -9 14 44 109 60 109 19 0 19 -13 0 -49 -14 -27 -11 -41 7 -41 4
0 8 13 8 29 0 42 18 48 44 16 23 -29 78 -43 69 -18 -6 14 25 49 34 39 7 -6 43
32 43 46 0 13 7 9 13 -7z m1150 -94 c33 -71 33 -71 5 -71 -13 0 -43 -11 -67
-25 -23 -14 -45 -25 -47 -25 -2 0 -4 11 -4 24 0 18 8 27 33 37 29 11 30 13 9
16 -17 3 -21 9 -17 23 3 10 1 21 -5 25 -6 4 -10 -4 -10 -19 0 -17 -6 -26 -15
-26 -26 0 -30 30 -7 52 28 28 63 18 81 -24 8 -18 16 -27 19 -20 2 7 -6 28 -17
48 -25 43 -26 44 -3 44 12 0 27 -19 45 -59z m-1448 -9 c-5 -4 -10 -13 -11 -19
-2 -30 -5 -34 -14 -28 -6 4 -11 -8 -11 -27 -2 -29 -2 -30 -6 -6 -5 30 21 88
40 88 7 0 8 -3 2 -8z m1511 -163 c11 -52 20 -76 26 -67 6 10 10 10 19 -2 15
-21 4 -243 -15 -305 -28 -92 -41 -125 -48 -125 -5 0 -8 -6 -8 -14 0 -20 -32
-75 -47 -81 -19 -7 -16 45 2 59 13 9 12 11 -7 11 -13 1 -33 4 -46 9 -21 7 -22
5 -16 -20 6 -24 5 -27 -15 -21 -15 3 -21 1 -18 -6 4 -13 32 -14 60 -2 29 12
21 -30 -8 -43 -37 -17 -49 -15 -75 13 l-23 24 27 41 c14 22 23 40 18 40 -5 0
-18 -18 -31 -40 -12 -22 -27 -37 -33 -34 -24 15 14 -37 48 -64 20 -17 33 -35
30 -41 -11 -17 -25 -13 -68 20 -55 44 -58 29 -4 -21 49 -46 56 -60 28 -60 -9
0 -22 -10 -27 -22 -13 -31 -81 -40 -73 -11 4 16 0 18 -27 15 -41 -5 -52 11
-29 46 l17 27 -26 -23 c-19 -18 -27 -20 -33 -11 -5 9 18 36 68 83 83 79 153
176 161 227 15 88 19 99 37 99 10 0 20 -6 23 -14 3 -7 28 -19 56 -26 59 -14
70 -25 41 -40 -11 -6 -20 -21 -20 -33 0 -30 -18 -47 -48 -47 -15 0 -26 7 -29
19 -3 13 -11 17 -24 14 -34 -9 -30 -21 14 -47 50 -30 67 -32 67 -11 0 8 5 15
10 15 10 0 35 48 32 63 -1 4 2 7 7 7 5 0 12 7 15 17 7 17 -31 66 -45 57 -4 -2
-23 5 -41 16 -37 22 -68 26 -85 9 -8 -8 -11 22 -10 111 1 118 2 121 21 114 12
-3 52 -8 90 -9 51 -2 65 0 57 8 -7 7 -36 10 -70 9 l-58 -3 1 50 c1 62 17 82
44 57 18 -16 20 -15 32 14 21 51 37 36 56 -51z m-141 -10 c5 -13 2 -25 -6 -30
-19 -11 -29 -2 -29 27 0 30 26 32 35 3z m-1135 -501 c0 -17 86 -101 145 -143
70 -49 83 -55 158 -74 21 -5 41 -11 43 -14 2 -2 1 -22 -4 -43 -5 -21 -5 -55
-1 -74 20 -98 19 -110 -4 -110 -45 0 -121 35 -112 51 4 5 2 9 -3 9 -11 0 -42
66 -42 90 0 13 7 20 20 20 25 0 25 11 1 32 -18 15 -20 15 -33 0 -25 -31 -54
-77 -61 -95 -4 -9 -14 -20 -22 -23 -22 -9 -65 34 -65 63 0 32 16 29 29 -7 11
-33 20 -39 17 -13 0 10 4 18 11 18 24 0 25 15 3 33 -21 17 -22 22 -12 52 7 18
12 37 12 41 0 20 -29 6 -65 -31 -47 -48 -60 -50 -51 -10 4 22 2 30 -9 30 -8 0
-19 9 -25 21 -9 16 -8 25 6 40 22 24 35 24 70 -3 l29 -22 -28 30 c-15 17 -24
33 -20 37 3 4 0 7 -8 7 -8 0 -21 -6 -27 -12 -10 -10 -17 -7 -35 16 -14 17 -29
27 -38 23 -10 -4 -8 -8 9 -12 27 -9 29 -35 2 -42 -11 -3 -20 -12 -20 -19 0 -8
-10 -14 -25 -14 -18 0 -25 5 -25 20 0 11 5 20 10 20 6 0 10 16 10 35 0 26 6
39 26 52 26 17 27 17 50 -12 25 -32 33 -23 9 9 -8 10 -12 23 -9 27 11 19 30 7
57 -36 41 -64 203 -195 242 -195 8 0 17 -4 20 -10 3 -5 15 -10 26 -10 22 0 26
-28 4 -36 -8 -4 -15 -12 -15 -19 0 -7 -7 -18 -15 -25 -11 -9 -12 -17 -4 -32
12 -23 18 -20 24 12 2 12 11 33 20 46 8 13 15 29 15 36 0 18 -35 47 -76 64
-18 8 -35 18 -39 24 -3 5 -21 16 -38 25 -18 8 -52 34 -75 58 -82 83 -122 130
-118 135 3 2 1 14 -5 26 -6 11 5 3 25 -18 20 -22 36 -43 36 -48z m1152 -158
c-30 -37 -41 -46 -46 -35 -3 9 1 18 9 21 8 4 15 11 15 17 0 16 54 70 58 57 2
-5 -14 -33 -36 -60z m-267 17 c-7 -16 -45 -31 -45 -17 0 8 43 40 48 35 1 -1 0
-9 -3 -18z m-975 -26 c0 -11 6 -26 14 -33 17 -18 30 -58 18 -58 -13 0 -82 72
-82 86 0 13 15 22 38 23 6 1 12 -8 12 -18z m897 -18 c2 -6 -6 -13 -19 -15 -12
-2 -24 -11 -26 -21 -3 -17 2 -16 43 8 26 14 49 25 50 23 1 -2 14 -25 28 -53
14 -27 32 -59 40 -69 13 -18 14 -17 10 11 -6 39 4 43 45 22 l33 -17 -38 -29
c-41 -32 -142 -82 -213 -107 -72 -25 -240 -44 -240 -28 0 6 5 14 11 18 17 10
89 12 89 2 0 -5 5 -6 10 -3 8 5 7 11 -1 21 -13 16 -39 19 -39 4 0 -7 -6 -7
-20 0 -28 15 -26 50 3 51 21 1 21 1 -3 8 -15 4 -26 15 -28 29 -2 12 -8 22 -13
22 -5 0 -9 -31 -9 -70 0 -57 -3 -70 -16 -70 -9 0 -18 8 -21 18 -3 14 -11 18
-30 14 -19 -4 -31 1 -44 19 l-19 24 0 -32 c0 -21 -5 -33 -14 -33 -20 0 -27
135 -9 172 18 35 64 46 99 23 31 -20 23 -38 -12 -25 -27 11 -44 6 -44 -12 0
-11 80 -8 236 8 l61 7 7 -39 c16 -93 18 -98 27 -81 8 14 13 14 36 2 37 -19 39
-13 9 20 -15 16 -26 31 -26 36 0 4 -11 21 -25 37 -14 17 -21 33 -16 36 5 3 7
14 4 25 -9 35 73 79 84 44z m-762 -72 c0 -7 -12 -20 -27 -28 -22 -14 -29 -15
-42 -4 -14 12 -12 16 16 31 37 19 53 20 53 1z m125 -91 c0 -11 4 -20 9 -20 9
0 23 -41 16 -48 -6 -6 -65 21 -66 30 -4 26 -3 34 6 45 16 19 35 15 35 -7z
m278 -91 c18 -6 29 -15 26 -20 -7 -12 -81 -12 -89 0 -4 7 15 26 31 31 1 0 15
-5 32 -11z"/>
<path d="M1100 1841 c0 -18 3 -19 30 -9 44 15 46 28 6 28 -29 0 -36 -4 -36
-19z"/>
<path d="M1687 1550 l-15 -29 29 21 c15 12 26 25 23 30 -10 15 -23 8 -37 -22z"/>
<path d="M1020 1620 c-199 -37 -364 -179 -414 -355 -37 -131 -28 -243 28 -362
60 -125 161 -216 299 -268 91 -34 260 -36 357 -4 110 36 209 109 268 197 77
114 97 189 90 327 -4 76 -10 102 -40 165 -83 180 -255 295 -456 305 -48 2
-107 0 -132 -5z m235 -31 c40 -10 47 -13 119 -44 41 -18 176 -143 176 -163 0
-5 4 -12 8 -14 4 -1 21 -32 37 -68 23 -53 30 -83 33 -158 8 -173 -42 -275
-208 -425 -8 -7 -37 -23 -65 -36 -27 -12 -59 -27 -70 -34 -11 -6 -75 -13 -142
-15 -129 -5 -170 3 -272 51 -45 21 -181 145 -181 165 0 6 -3 12 -7 14 -9 3
-42 71 -64 128 -17 44 -17 216 1 262 20 54 54 123 63 126 4 2 7 7 7 12 0 5 27
35 60 67 92 88 164 123 310 147 34 6 146 -3 195 -15z"/>
<path d="M1089 1368 c-15 -30 -22 -63 -23 -105 -1 -34 -4 -65 -8 -68 -13 -13
-92 -24 -126 -18 -31 5 -33 7 -31 47 4 76 -33 166 -68 166 -47 0 -91 -115 -69
-179 8 -22 10 -47 5 -64 -10 -38 6 -79 42 -106 25 -19 29 -28 27 -66 -2 -62
21 -92 75 -100 24 -4 138 -5 253 -3 176 2 214 6 236 20 29 19 40 57 28 100 -7
24 -4 32 17 52 25 23 26 31 28 133 2 70 -2 118 -10 138 -15 36 -51 75 -68 75
-7 0 -4 -5 6 -11 9 -5 17 -15 17 -22 0 -7 9 -23 20 -37 24 -31 26 -92 4 -125
-15 -23 -15 -25 0 -31 21 -8 21 -72 0 -99 -13 -17 -30 -21 -127 -25 -79 -4
-120 -1 -138 7 -18 9 -35 10 -55 4 -16 -5 -82 -12 -147 -14 -108 -4 -121 -3
-150 17 -17 12 -36 34 -42 50 -8 24 -6 31 14 47 l23 19 -27 27 c-21 22 -26 34
-22 60 8 50 44 123 61 123 9 0 22 -24 35 -62 26 -77 26 -90 1 -113 -11 -10
-20 -22 -20 -26 0 -4 25 -13 55 -19 45 -9 69 -9 131 4 42 9 79 16 82 16 3 0
-5 11 -18 25 -20 21 -22 31 -17 73 7 57 35 122 54 122 7 0 15 -12 19 -27 3
-16 12 -45 20 -66 19 -52 18 -77 -7 -104 -25 -26 -25 -25 60 -43 54 -10 147
-4 156 11 3 4 -5 24 -16 44 -22 36 -22 38 -6 84 10 25 17 55 17 66 0 17 -2 17
-13 -5 -28 -55 -38 -107 -25 -134 17 -38 -1 -51 -68 -50 -64 1 -73 10 -69 66
3 37 -25 129 -47 156 -21 24 -47 13 -69 -30z m61 -358 c19 0 79 3 133 6 114 6
137 -4 137 -61 0 -61 -18 -65 -289 -65 -234 0 -241 1 -261 22 -26 28 -25 56 2
85 22 23 26 24 133 19 60 -3 126 -6 145 -6z"/>
<path d="M380 1275 c0 -12 4 -14 19 -5 16 8 22 6 30 -7 11 -21 26 -11 18 12
-9 21 -67 21 -67 0z"/>
<path d="M450 990 c-8 -5 -25 -10 -37 -10 -12 0 -31 -12 -42 -26 -16 -21 -19
-35 -15 -72 3 -26 13 -61 22 -79 15 -29 17 -30 28 -14 7 9 31 23 53 31 23 7
41 17 41 22 0 12 -19 10 -65 -7 -22 -8 -46 -14 -52 -15 -18 0 -16 27 3 38 14
8 14 10 0 21 -22 18 -20 54 3 75 16 15 19 15 31 1 18 -21 27 -19 34 9 3 14 14
27 24 29 12 3 13 5 2 6 -8 0 -22 -4 -30 -9z"/>
<path d="M411 905 c5 -24 60 -28 67 -6 3 10 -1 12 -19 8 -12 -3 -29 -1 -37 6
-12 9 -14 8 -11 -8z"/>
<path d="M1840 1289 c-9 -16 -14 -18 -26 -8 -11 9 -14 8 -14 -5 0 -11 9 -16
30 -16 25 0 30 4 30 25 0 30 -6 32 -20 4z"/>
<path d="M1766 915 c-4 -10 1 -15 15 -15 11 0 22 -7 25 -15 8 -19 24 -20 24
-1 0 14 -36 46 -51 46 -4 0 -9 -7 -13 -15z"/>
<path d="M1585 620 c4 -13 1 -22 -9 -26 -9 -3 -16 -11 -16 -17 0 -6 8 -4 17 6
16 16 19 15 40 -11 l22 -27 1 26 c0 14 -10 35 -23 47 -29 27 -40 28 -32 2z"/>
<path d="M723 545 c-3 -9 -3 -19 1 -22 8 -9 37 18 30 28 -8 14 -24 11 -31 -6z"/>
<path d="M1426 440 c10 -19 20 -36 21 -38 1 -2 10 5 20 15 13 13 31 19 52 17
24 -1 30 1 22 9 -5 5 -32 10 -58 9 -26 0 -54 5 -62 11 -10 8 -8 0 5 -23z"/>
<path d="M1020 438 c0 -17 3 -20 9 -9 5 8 26 17 47 21 l39 8 -47 1 c-43 1 -48
-1 -48 -21z"/>
<path d="M1057 413 c-24 -23 9 -31 39 -8 18 14 18 14 -7 15 -14 0 -29 -3 -32
-7z"/>
<path d="M1230 416 c0 -4 13 -20 28 -34 24 -22 35 -26 63 -21 19 4 27 7 18 8
-9 0 -20 8 -23 17 -4 11 -10 13 -23 5 -14 -7 -23 -5 -40 11 -13 12 -23 18 -23
14z"/>
</g>
</svg>
